# xmcd
# 
# Track frame offsets:
#	150
#	6234
#	21186
#	35430
#	50063
#	63782
#	71743
#	87871
#	101476
#	114123
#	127589
#	151763
#	168742
#	187867
#	208533
#	224930
#	243865
#
# Disc length: 3479 seconds
#
# Revision: 1
# Processed by: cddbd v1.4PL0 Copyright (c) Steve Scherf et al.
# Submitted via: Audio-CD-Archiv 2.10.441
#
DISCID=de0d9511
DTITLE=The Blues Brothers - Complete - Disc 1
DYEAR=1900
DGENRE=blues
TTITLE0=Opening: I Can't Turn You Loose
TTITLE1=Everybody Needs Somebody To Love
TTITLE2=Gimme Some Lovin'
TTITLE3=Think
TTITLE4=Soul Man
TTITLE5=Soul Finger
TTITLE6=Messin' With The Kid
TTITLE7=Hey Bartender
TTITLE8=(I Got Every Thing I Need) Almost
TTITLE9=Rubber Biscuit
TTITLE10=Shot Gun Blues
TTITLE11=Groove Me
TTITLE12=I Don't Know
TTITLE13="B" Movie Box Car Blues
TTITLE14=Flip Flop And Fly
TTITLE15=She Caught The Katy
TTITLE16=Peter Gunn Theme
EXTD=
EXTT0=
EXTT1=
EXTT2=
EXTT3=
EXTT4=
EXTT5=
EXTT6=
EXTT7=
EXTT8=
EXTT9=
EXTT10=
EXTT11=
EXTT12=
EXTT13=
EXTT14=
EXTT15=
EXTT16=
PLAYORDER=
